<?xml version="1.0" encoding="utf-8"?>
<!-- Generator: Adobe Illustrator 26.0.0, SVG Export Plug-In . SVG Version: 6.00 Build 0)  -->
<svg version="1.1" xmlns="http://www.w3.org/2000/svg" xmlns:xlink="http://www.w3.org/1999/xlink" x="0px" y="0px"
	 viewBox="0 0 3084.1 3146.5" style="enable-background:new 0 0 3084.1 3146.5;" xml:space="preserve">
<style type="text/css">
	.st0{display:none;}
	.st1{display:inline;}
	.st2{clip-path:url(#SVGID_00000173152818438326634380000007728022563741880750_);}
	.st3{fill:#6BC6CD;}
	.st4{opacity:0.37;}
	.st5{fill:#FFFFFF;}
</style>
<g id="Capa_1" class="st0">
	<g class="st1">
		<defs>
			<circle id="SVGID_1_" cx="1562.5" cy="1578.1" r="1523.1"/>
		</defs>
		<clipPath id="SVGID_00000074439510345193248630000007760678457612727465_">
			<use xlink:href="#SVGID_1_"  style="overflow:visible;"/>
		</clipPath>
		<path style="clip-path:url(#SVGID_00000074439510345193248630000007760678457612727465_);" d="M500.5,2362.6
			c0,0,198.9-325.4,238.5-386.7c39.6-61.3,175.4-121.8,175.4-121.8l466.5-113.5l17.3,0.5c0,0,20.3-55.5,17.9-67.8
			c-2.4-12.2-9.9-17.9-47.5-37c-37.6-19.1-71.4-19.4-110.8-19.4s-51.7-6.9-66.3-19.4c-14.6-12.5-21.8-40.6-21.8-57.9
			s8.1-43.9,8.1-53.5c0-9.6-10.5-5.7-10.5-27.5s20.3-40.6,20.3-40.6l3.9-33.1c0,0-9.9-10.8-16.4-24.2c-6.6-13.4,6.7-26.5,6.7-31.9
			s-5.4-22.8-30.9-28.2s-25.5-7.4-34.9-28.2c-16.8-26.2,46.4-90.7,46.4-90.7l-84.7-18.8c-87.4-37.6-122.3-106.2-132.4-198.9
			c-10.1-92.7,28.9-95.4,28.9-95.4l299.7,27.5c0,0,3.4-20.2,137.1-120.3c155.2-102.1,343.4-28.9,350.8-24.9
			c7.4,4,18.8,16.1,18.8,16.1s11.4,0,22.2,4.7c10.8,4.7-0.7,5.4,24.9,12.1c25.5,6.7,78.6,51.1,78.6,51.1s39,67.2,57.8,96.8
			c18.8,29.6,40.3,142.5,44.3,172c4,29.6,9.4,90,8.1,106.2c-1.3,16.1,17.5,59.1-16.1,83.3c-33.6,24.2-53.8,5.4-47,44.3
			s2.7,92.7-25.5,119.6s-53.8,129-53.8,129c5.3,105.9,44,183.4,60.1,211.5c13.9,8.6,51.5,35.9,140.3,104.2
			c211.1,162.5,300.9,177.5,353.1,247.6c52.2,70.1,181.7,423.9,181.7,423.9l34.3,77.8c273.3-275.3,442.1-654.4,442.1-1073
			C3085.6,736.9,2403.7,55,1562.5,55S39.3,736.9,39.3,1578.1c0,373.2,134.2,715.1,357,979.9L500.5,2362.6z"/>
		<g style="clip-path:url(#SVGID_00000074439510345193248630000007760678457612727465_);">
			<g>
				<path d="M1562.5,157c96.5,0,192.9,9.7,286.5,28.9c91.2,18.7,180.9,46.5,266.6,82.8c84.2,35.6,165.4,79.7,241.4,131
					c75.3,50.9,146.1,109.3,210.4,173.6c64.3,64.3,122.7,135.1,173.6,210.4c51.3,76,95.4,157.2,131,241.4
					c36.3,85.7,64.1,175.4,82.8,266.6c19.2,93.6,28.9,190,28.9,286.5s-9.7,192.9-28.9,286.5c-18.7,91.2-46.5,180.9-82.8,266.6
					c-35.6,84.2-79.7,165.4-131,241.4c-50.9,75.3-109.3,146.1-173.6,210.4c-64.3,64.3-135.1,122.7-210.4,173.6
					c-76,51.3-157.2,95.4-241.4,131c-85.7,36.3-175.4,64.1-266.6,82.8c-93.6,19.2-190,28.9-286.5,28.9s-192.9-9.7-286.5-28.9
					c-91.2-18.7-180.9-46.5-266.6-82.8c-84.2-35.6-165.4-79.7-241.4-131c-75.3-50.9-146.1-109.3-210.4-173.6
					S434.8,2447.9,384,2372.6c-51.3-76-95.4-157.2-131-241.4c-36.3-85.7-64.1-175.4-82.8-266.6c-19.2-93.6-28.9-190-28.9-286.5
					s9.7-192.9,28.9-286.5c18.7-91.2,46.5-180.9,82.8-266.6c35.6-84.2,79.7-165.4,131-241.4c50.9-75.3,109.3-146.1,173.6-210.4
					c64.3-64.3,135.1-122.7,210.4-173.6c76-51.3,157.2-95.4,241.4-131c85.7-36.3,175.4-64.1,266.6-82.8
					C1369.6,166.7,1466,157,1562.5,157 M1562.5,55C721.3,55,39.3,736.9,39.3,1578.1s681.9,1523.1,1523.1,1523.1
					s1523.1-681.9,1523.1-1523.1S2403.7,55,1562.5,55L1562.5,55z"/>
			</g>
			<g>
				<path class="st3" d="M1562.5,147c97.2,0,194.2,9.8,288.5,29.1c91.8,18.8,182.2,46.8,268.5,83.4
					c84.8,35.9,166.6,80.2,243.1,131.9c75.8,51.2,147.1,110,211.9,174.8c64.8,64.8,123.6,136.1,174.8,211.9
					c51.7,76.5,96.1,158.3,131.9,243.1c36.5,86.3,64.6,176.7,83.4,268.5c19.3,94.3,29.1,191.4,29.1,288.5s-9.8,194.2-29.1,288.5
					c-18.8,91.8-46.8,182.2-83.4,268.5c-35.9,84.8-80.2,166.6-131.9,243.1c-51.2,75.8-110,147.1-174.8,211.9
					c-64.8,64.8-136.1,123.6-211.9,174.8c-76.5,51.7-158.3,96.1-243.1,131.9c-86.3,36.5-176.7,64.6-268.5,83.4
					c-94.3,19.3-191.4,29.1-288.5,29.1s-194.2-9.8-288.5-29.1c-91.8-18.8-182.2-46.8-268.5-83.4c-84.8-35.9-166.6-80.2-243.1-131.9
					c-75.8-51.2-147.1-110-211.9-174.8S426.9,2454,375.7,2378.2c-51.7-76.5-96.1-158.3-131.9-243.1
					c-36.5-86.3-64.6-176.7-83.4-268.5c-19.3-94.3-29.1-191.4-29.1-288.5s9.8-194.2,29.1-288.5c18.8-91.8,46.8-182.2,83.4-268.5
					C279.6,936.3,324,854.5,375.7,778c51.2-75.8,110-147.1,174.8-211.9c64.8-64.8,136.1-123.6,211.9-174.8
					c76.5-51.7,158.3-96.1,243.1-131.9c86.3-36.5,176.7-64.6,268.5-83.4C1368.2,156.8,1465.3,147,1562.5,147 M1562.5,55
					C721.3,55,39.3,736.9,39.3,1578.1s681.9,1523.1,1523.1,1523.1s1523.1-681.9,1523.1-1523.1S2403.7,55,1562.5,55L1562.5,55z"/>
			</g>
			<g class="st4">
				<path class="st5" d="M1582.9,2080.7c-1.3,0-2.6,0-3.9-0.1c-0.5,0-1.1,0-1.6-0.1c-0.4,0-1.1,0-1.3-0.1c0,0,0.2,0,0.5,0.1l0,0.1
					c-1.5-0.4-2.4-0.6-3.1-0.8c-3.5-0.7-7.3-1.7-11.1-2.8c-3.3-1-6.8-2.2-10.5-3.7c-0.6-0.2-1.2-0.5-1.9-0.7c-1-0.5-2.1-1-3.2-1.4
					c-1-0.4-2-0.9-2.9-1.3c-6.1-2.9-12.7-6.3-20.7-10.8c-5.9-3.3-12.2-6.9-18.2-11.1c-0.4-0.3-0.9-0.6-1.3-0.9
					c-0.2-0.2-0.5-0.3-0.7-0.5c-0.1,0-0.1-0.1-0.2-0.2c-0.5-0.4-0.9-0.8-1.4-1.1c-0.3-0.2-0.6-0.5-0.9-0.7c-2.5-2.1-4.8-4.3-6.8-6.5
					c-0.3-0.4-0.7-0.8-1.1-1.1c-0.3-0.3-0.5-0.5-0.7-0.8c0,0,0-0.1-0.1-0.1c-0.4-0.7-0.9-1.3-1.3-1.9c-0.3-0.4-0.6-0.8-0.8-1.2
					c-1.6-2.4-3-4.8-4.3-7.1c21.3,10.2,36.2,15.5,37,15.8l1.2,0.4l1.2,0.1c17,1.6,34.1,2.3,50.6,2.3c47.9,0,93.9-6.6,137.4-19.5
					c-0.8,0.8-1.6,1.5-2.4,2.3c-4.7,4.5-9.7,9.3-15,13.9c-0.8,0.7-1.6,1.5-2.5,2.4c-0.4,0.4-0.9,0.9-1.4,1.3c-1,0.5-1.9,1.1-2.8,1.8
					l-1.7,1.3c-1.5,1.1-3,2.1-4.4,3c-2.7,1.7-5.4,3.4-8,4.8c-1.4,0.8-2.8,1.5-4.2,2.2c-0.6,0.3-1.2,0.5-1.7,0.8l-0.8,0.4
					c-0.6,0.3-1.2,0.6-1.7,0.9c-3.3,1.5-7.6,2.6-11.8,3.7c-2.5,0.6-5.1,1.3-7.6,2c-2.7,0.8-5.5,1.7-8.2,2.6
					c-13.9,4.3-27,8.5-40.6,10.9c-1.3,0.2-2.7,0.5-4.2,0.7c-0.3,0-0.8,0.1-1.4,0.1c-0.6,0.1-1.2,0.1-1.6,0.2
					C1587.9,2080.6,1585.3,2080.7,1582.9,2080.7z"/>
				<path class="st3" d="M1673.3,2045.1c-1.1,0.6-2.2,1.3-3.3,1.9c-1.3,0.7-2.6,1.4-3.8,2c-0.5,0.3-1,0.5-1.6,0.7l-0.9,0.4
					c-0.7,0.3-1.2,0.6-1.6,0.8c-0.3,0.1-0.5,0.3-0.8,0.4c-2.4,1-5.9,1.9-9.3,2.7c-2.6,0.7-5.4,1.3-8.1,2.2c-2.8,0.8-5.5,1.7-8.3,2.6
					c-13.6,4.3-26.4,8.3-39.4,10.6c-1.2,0.2-2.4,0.4-3.7,0.6c-0.4,0-0.7,0.1-1.2,0.1c-0.5,0.1-1.1,0.1-1.4,0.2
					c-2.6,0.2-4.9,0.4-7,0.4c-1.1,0-2.2,0-3.3-0.1c-0.8,0-1.4-0.1-2-0.1c-0.1,0-0.2,0-0.2,0c-0.8-0.2-1.4-0.4-2-0.5
					c-3.2-0.6-6.6-1.5-10.1-2.6c-3.1-1-6.3-2.1-9.7-3.4c-0.5-0.2-1-0.4-1.5-0.6c-1.1-0.5-2.1-1-3.1-1.4c-1-0.4-1.9-0.9-2.7-1.3
					c-4.6-2.2-9.6-4.7-15.4-7.9c14.4,1.1,28.7,1.6,42.7,1.6C1609.1,2054.5,1641.8,2051.4,1673.3,2045.1 M1755.7,1998.9
					c-49.8,21.3-109.6,35.6-180.1,35.6c-16,0-32.6-0.7-49.7-2.3c0,0-25.7-9-57.9-26.5c0,0.1,0,0.2,0.1,0.3c0.9,4.2,2,8.4,3.3,12.5
					c0.6,1.9,1.4,3.8,2,5.7c0,0.1,0,0.1,0.1,0.2c0.5,1,0.9,2,1.4,2.9c2,3.8,4.2,7.5,6.5,11.1c0.7,1,1.5,2,2.1,3.1
					c0.3,0.4,0.4,0.6,0.4,0.6c0.8,0.9,1.7,1.8,2.5,2.7c2.4,2.6,4.9,5,7.6,7.3c0.7,0.6,1.5,1.2,2.2,1.8c0.3,0.3,0.5,0.4,0.5,0.5
					c0.8,0.6,1.7,1.1,2.5,1.7c6.1,4.3,12.5,8,19,11.6c7,3.9,14.1,7.7,21.3,11.1c2,1,4.1,1.9,6.2,2.8c0.1,0,0.1,0,0.2,0.1
					c0.7,0.3,1.5,0.6,2.2,0.9c3.7,1.4,7.4,2.8,11.2,3.9c4,1.2,8,2.3,12.1,3.1c0.9,0.2,3.7,1,3.7,1c0,0-0.4-0.1-1.7-0.5
					c1.4,0.4,3.3,0.3,4.8,0.4c1.5,0.1,3,0.1,4.5,0.1c3,0,5.9-0.2,8.9-0.4c0.9-0.1,3.1-0.3,3.2-0.3c0,0,0,0,0,0
					c1.6-0.2,3.2-0.5,4.8-0.8c17-3.1,33.5-8.7,50-13.8c6.9-2.1,15.3-3.4,21.9-6.8c-0.3,0.1-0.5,0.2-0.5,0.2c-0.1,0,0.2-0.2,1.1-0.6
					c0.9-0.4,1.8-0.8,2.7-1.3c1.6-0.8,3.1-1.5,4.6-2.4c3-1.6,5.9-3.4,8.8-5.2c1.6-1.1,3.2-2.1,4.8-3.3c0.6-0.4,1.2-0.9,1.8-1.3
					c0.9-0.7,1.3-0.9,1.3-0.9c0.1,0-1.6,1.3-1.8,1.3c2.5-0.7,5.8-4.7,7.8-6.5c5.3-4.6,10.3-9.4,15.4-14.2
					c12.1-11.7,24.1-23.7,37.1-34.6C1754.9,1999.6,1755.3,1999.2,1755.7,1998.9L1755.7,1998.9z"/>
			</g>
			<g class="st4">
				<path class="st5" d="M1519.7,3246.7c-100.8,0-212.2-26.1-331.2-77.5c-98.7-42.7-203.6-103.2-312-180c1.2-10.3,2.5-20.7,3.8-30.8
					c6.1-47.3,12.4-96.2,7.1-145.2c-2-19.1-5.2-38.2-8.3-56.7c-0.6-3.7-1.2-7.3-1.8-11c-1.6-9.8-3.3-20.4-4.8-30.8l-0.5-3.8l0-0.2
					c-0.1-1.2-0.3-2.4-0.4-3.6c-0.2-1.3-0.3-2.6-0.5-3.9c-0.7-5.8-1.2-11.3-1.7-16.6c-3.3-40-3.4-81.1-3.4-120.8c0,0,0-14.6,0-19.2
					c0-42,0-85.4-2.7-128.1c-0.9-14.2-11.9-28.9-28.7-28.9c-0.4,0-0.8,0-1.2,0c-8.3,0.4-16.5,4.3-22.1,10.4c-5,5.5-7.5,12.6-7,19.7
					c2.7,42.8,2.7,86.6,2.7,128.9c0,40.4,0,82.2,2.3,123.4c1.8,31.5,6.9,62.9,11.7,93.2c2,12.4,4.1,25.2,5.9,37.7l0.2,1.6
					c0.1,0.7,0.2,1.5,0.3,2.2l0,0.2l0-0.1l0.3,2.3c0.2,1.7,0.4,3.4,0.6,5.2c0.5,4.3,0.8,9,1.2,15.2c0.5,9.7,0.6,20.1,0.4,30.7
					c-0.4,17.6-1.9,36.3-4.6,60.8c-1.1,9.4-2.2,18.9-3.4,28.2c-127.2-95.5-236-195.8-305.8-264.1
					c-64.2-62.9-107.7-110.6-121.6-126.1c36.9-62.1,334.5-561.8,371.5-603.7c18.7-21.2,50.8-44.6,88.2-64.3
					c38.7-20.4,79.3-35.1,114.4-41.3c63.2-11.3,309.5-73,392.8-94.1c-24.1,36.3-34,72.1-29.6,106.7c5.5,43.6,33.2,84.2,82.4,120.8
					c1.1,5.2,2,10.5,2.9,16.1c0.9,5.2,1.8,10.5,2.9,15.8c4.1,20.1,11.4,37.6,21.8,51.9c10.1,14,23.4,26,40.8,36.7
					c14.8,9.2,31.4,17.5,49.1,24.8c18.1,7.4,35.2,11.2,51,11.2c2,0,4.1-0.1,6.1-0.2c21.5-1.3,42.3-7.1,59.8-12.5
					c3.5-1.1,7.1-2.2,10.7-3.2c13.9-4.1,28.3-8.4,41.9-15.3c13-6.6,25.6-15.8,40.9-29.8c6.4-5.9,12.7-11.9,18.8-17.8
					c7.3-7.1,14.9-14.4,22.6-21.2c1.8-1.6,3.6-3.2,5.4-4.7c5.5-4.8,11.2-9.7,16.4-15.5c6.3-7.1,11.8-14.7,17.2-22l1.9-2.6
					c4.7-6.4,5.9-15.1,3.6-23.4c77-50.3,119.7-111.7,134.7-136.3c10.8,8.3,32.9,24.2,79.6,56.5c49.9,34.5,113.2,77.6,174.5,119.3
					c81.6,55.5,158.7,108,178.9,123.2c31.9,23.9,57.6,59.3,76.5,105.1c4.9,11.9,77.6,217.6,115.4,324.7l0.9,2.4l1.9,1.7
					c0.3,0.2,28.2,25.5,51.3,68.9c13.4,25.3,22.6,51.7,27.3,78.5c5.8,33.4,4.6,67.6-3.6,101.7c-13.3,55.3-79.2,105.9-207.3,159.2
					c-86.7,36.1-198.3,72.1-326.8,110.9c1.8-8.3-0.1-17.8-5-24.8c-4.2-6.1-10.2-9.9-17-10.9c-2.9-0.4-5.9-1.1-9.5-2.2
					c0,0-0.1,0-0.1-0.1c-0.3-0.1-0.5-0.3-0.8-0.4c-0.2-0.1-0.3-0.2-0.5-0.3c-0.4-0.4-0.7-0.7-1.1-1.1c-0.2-0.7-0.5-1.4-0.9-2.2
					c0-0.1-0.1-0.2-0.1-0.2c0-0.2-0.1-0.7-0.2-1.1c-0.1-0.7-0.2-1.5-0.4-2.3c0,0,0,0,0-0.1c-0.1-2.8-0.1-5.7,0.2-9
					c0-0.2,0.1-0.5,0.1-0.7c0-0.4,0.1-0.9,0.2-1.8l0.1-0.6c0.2-1.3,0.4-2.5,0.7-3.8c0.7-3.6,1.7-7.4,2.8-11.4
					c1.9-6.7,4.4-13.7,7.4-21.3c0.1-0.3,0.3-0.6,0.4-0.9c0.2-0.5,0.5-0.9,0.7-1.5c0.4-0.9,1-2.4,1.2-3c1-2.4,2.1-4.7,3.2-7.1
					c0.8-1.9,1.7-3.7,2.5-5.6c10.6-23.8,20.8-47.3,27.8-71.9c8.2-28.6,11.7-58.7,10.4-89.2c-0.7-16.1-13.6-29.1-28.8-29.1
					c-0.4,0-0.8,0-1.2,0c-16.7,0.7-29.7,14.2-29.1,29.9c0.6,13.8,0.2,26.4-1.2,38.6c0,0.3-0.1,1.1-0.2,1.9c-0.1,1-0.3,2-0.5,3l0,0.3
					c-0.5,2.9-1,5.8-1.6,8.7c-1.1,5.6-2.5,11.3-4.1,17.1c-2.9,10.5-6.7,21.7-11.6,34.2c-1.1,2.8-2.3,5.8-3.5,8.8c0,0-1.1,2.7-1.2,3
					l-0.6,1.3c-2.7,6.4-5.7,13-8.9,20.3c-7.2,16.1-14.1,31.9-18.8,48.7c-6.5,23.4-7.5,43-3.1,59.9c5.1,19.7,18.9,35.1,37.6,43.2
					c-35,10.4-71.1,21.1-108.2,32.1c-93.4,27.6-190,56.2-293.7,88.2C1626.2,3239.1,1574,3246.7,1519.7,3246.7
					C1519.7,3246.7,1519.7,3246.7,1519.7,3246.7z"/>
				<path class="st3" d="M1340.5,1771.4c-16.3,31.2-22.5,62.1-18.7,92.4c5.8,45.4,33.8,87.5,83.2,125.2c0.8,3.9,1.4,7.9,2.2,12.1
					c0.9,5.2,1.8,10.6,2.9,16.1c4.4,21.5,12.3,40.3,23.5,55.8c10.9,15,25.2,27.9,43.6,39.3c15.3,9.5,32.3,18.1,50.6,25.6
					c19.3,7.9,37.7,11.9,54.8,11.9c2.3,0,4.5-0.1,6.7-0.2c22.6-1.4,44.1-7.3,62.1-12.9c3.5-1.1,6.9-2.1,10.5-3.2
					c14.4-4.3,29.2-8.7,43.6-16c17.7-9,32.3-21.5,43.1-31.3c6.5-5.9,12.8-12.1,19-18c7.6-7.3,14.7-14.3,22.2-20.9
					c1.7-1.5,3.5-3,5.3-4.6c5.8-5,11.7-10.1,17.4-16.5c6.6-7.4,12.3-15.2,17.8-22.7l1.9-2.5c5.1-6.9,7.3-15.7,6.5-24.6
					c47.4-32,81.4-68,102-93.5c10.3-12.8,18.4-24.1,24.3-33.1c13.1,9.7,34.8,25,71.3,50.2c49.9,34.5,113.3,77.7,174.6,119.4
					c81.5,55.5,158.5,107.9,178.5,122.9c19.3,14.5,36.6,33.9,51.3,57.6c12,19.4,18.9,36.1,21.9,43.3
					c4.5,10.8,71.3,199.8,115.2,324.3l1.7,4.9l3.8,3.4c0.3,0.2,26.5,23.9,48.8,65.5c13,24.4,22,49.9,26.5,75.7
					c5.7,32.2,4.5,65.2-3.4,98.1c-6.3,26.2-25.7,51.3-59.2,76.5c-33.1,24.9-79.6,49.7-142.2,75.8c-83.4,34.7-190.2,69.4-313,106.7
					c-1-6.1-3.3-12-6.8-17c-5.8-8.4-14.2-13.8-23.9-15.2c-1.5-0.2-3.1-0.5-4.9-1c0-0.1,0-0.2,0-0.2c-0.1-2.1,0-4.2,0.2-6.7
					c0-0.2,0.1-0.5,0.1-0.7c0-0.4,0.1-0.9,0.2-1.6l0-0.2c0.2-1.2,0.4-2.4,0.6-3.5c0.7-3.4,1.6-6.8,2.6-10.6c1.8-6.4,4.2-13,7.1-20.4
					c0.1-0.1,0.1-0.3,0.2-0.4c0.3-0.6,0.6-1.3,0.9-2c0.2-0.6,0.9-2.3,1.1-2.7c1-2.3,2-4.6,3.1-7c0.9-1.9,1.7-3.8,2.6-5.7
					c10.8-24.2,21.1-48,28.3-73.2c8.5-29.7,12.1-60.8,10.8-92.4c-0.9-21.3-18.3-38.7-38.8-38.7c-0.5,0-1.1,0-1.6,0
					c-22.2,1-39.5,19.1-38.6,40.4c0.6,13.3,0.2,25.4-1.1,37.1c0,0.3-0.1,1.1-0.2,1.8c-0.1,0.8-0.3,1.7-0.4,2.6l-0.1,0.3
					c-0.4,2.8-0.9,5.6-1.5,8.3c-1.1,5.3-2.4,10.9-3.9,16.4c-2.8,10.2-6.5,21-11.2,33.1c-1.1,2.7-2.3,5.7-3.5,8.7
					c-0.1,0.2-0.3,0.7-0.5,1.2c-0.3,0.6-0.5,1.3-0.7,1.7l-0.2,0.5l-0.3,0.8c-2.7,6.3-5.6,12.9-8.9,20.1
					c-7.4,16.4-14.5,32.6-19.3,50.2c-7,25.1-8,46.4-3.1,65.1c3.9,14.9,12,27.7,23.3,37.4c-28.3,8.4-57.4,17-87,25.8
					c-93.5,27.6-190.1,56.2-293.9,88.3c-47.7,14.7-98.9,22.2-152.2,22.2c-51.4,0-106.1-6.9-162.6-20.6
					c-52.6-12.7-108-31.6-164.6-56.1c-96.6-41.8-199.3-100.8-305.3-175.5c1-8.3,2.1-16.6,3.1-24.8c6.2-47.9,12.5-97.4,7.2-147.5
					c-2.1-19.4-5.3-38.6-8.4-57.3c-0.6-3.7-1.2-7.3-1.8-11c-1.6-9.8-3.3-20.3-4.8-30.6c-0.1-0.8-0.2-1.6-0.3-2.4l-0.2-1.2l0-0.2
					c-0.1-1.2-0.3-2.4-0.5-3.6c-0.2-1.3-0.3-2.6-0.5-3.8c-0.7-5.7-1.2-11-1.6-16.2c-3.3-39.6-3.3-80.5-3.4-120l0-5.4
					c0-4.6,0-9.2,0-13.8c0-42.1,0-85.7-2.7-128.7c-1.4-21.5-18.4-38.3-38.7-38.3c-0.6,0-1.1,0-1.7,0c-11.1,0.5-21.6,5.5-29,13.8
					c-6.8,7.6-10.2,17.2-9.6,27c2.7,42.5,2.7,86.1,2.7,128.2c0,40.6,0,82.5,2.4,124c1.8,32,6.9,63.7,11.8,94.2
					c2,12.3,4,25.1,5.8,37.6c0.1,0.5,0.1,1,0.2,1.5c0.1,0.8,0.2,1.5,0.3,2.3l0,0.1c0.1,0.7,0.2,1.4,0.3,2.1c0.2,1.7,0.4,3.4,0.6,5
					c0.5,4.1,0.8,8.6,1.1,14.7c0.5,9.5,0.6,19.5,0.4,30c-0.4,17.3-1.8,35.7-4.6,59.9c-0.4,3.6-0.8,7.2-1.3,10.9
					c-120.7-91.9-223.8-187.1-290.8-252.7c-57.8-56.6-98.8-100.9-116.4-120.3c22.6-37.9,92.7-155.6,165.5-275.9
					c154.1-254.7,192.2-309.8,201.1-320c17.9-20.3,49-42.9,85.4-62.1c37.8-19.9,77.4-34.3,111.4-40.3
					C1028.7,1849.3,1241.7,1796.2,1340.5,1771.4 M1386.1,1739.3c0,0-344,87.4-419.3,100.8c-75.3,13.4-168,63.2-208.3,108.9
					c-40.3,45.7-376.3,611.5-376.3,611.5s188.8,216,447.5,407.3c1.9-15.1,3.8-30.2,5.6-45.3c2.3-20.5,4.2-41,4.7-61.6
					c0.3-10.5,0.2-21-0.4-31.5c-0.3-5.3-0.6-10.6-1.2-15.8c-0.3-2.5-0.6-5-0.9-7.5c0,0,0-0.1,0-0.1c0-0.1,0-0.2,0-0.3
					c-0.2-1.3-0.4-2.5-0.5-3.8c-6.2-43.4-15-86.3-17.5-130.1c-4.8-84.1,0.3-168.3-5-252.4c-0.7-10.9,9.5-19.1,19.5-19.5
					c0.3,0,0.5,0,0.8,0c10.6,0,18.1,9.6,18.7,19.6c3,47,2.7,94.2,2.7,141.3c0,42.3-0.1,84.9,3.4,127.1c0.5,5.6,1.1,11.3,1.7,16.9
					c0.3,2.5,0.6,5,0.9,7.5c0,0.1,0,0.3,0,0.4c0,0,0,0,0,0.1c0.2,1.3,0.3,2.5,0.5,3.8c1.5,10.3,3.1,20.7,4.8,31
					c3.7,22.3,7.6,44.7,10,67.2c6.4,60.1-4.9,119.8-11.6,179.6c198.5,141.4,433.2,262.8,653.8,262.8c53.8,0,106.7-7.2,158.1-23.1
					c556.4-172,959.5-258,997.2-413.9c37.6-155.9-77.9-258.9-77.9-258.9s-109.3-310-115.6-325.2c-6.3-15.2-29.6-71.7-79.7-109.3
					c-50.2-37.6-432.7-293-441.7-306.4c0,0-44.1,84.9-144.7,147.9c4.3,6.2,5.4,15.2,1,21.2c-6,8.1-11.9,16.3-18.5,23.8
					c-6.4,7.2-13.9,13.1-21,19.4c-14.2,12.6-27.4,26.3-41.4,39.2c-11.7,10.7-24.4,21-38.6,28.2c-16.1,8.2-33.8,12.5-51,17.9
					c-18.8,5.8-37.8,10.8-57.5,12.1c-1.8,0.1-3.6,0.2-5.5,0.2c-16.2,0-32.4-4.3-47.2-10.4c-16.4-6.7-32.6-14.7-47.7-24.1
					c-14.7-9.1-27.7-20-37.9-34c-10.3-14.2-16.7-30.9-20.1-48.1c-2.4-11.9-4-23.9-6.6-35.7
					C1356.2,1928.8,1296.5,1848.2,1386.1,1739.3L1386.1,1739.3z M2102.9,3099.8c-1.8,0-3.7-0.2-5.6-0.5c-23-3.3-42.5-18.3-48.4-41.2
					c-4.6-17.9-1.8-37.2,3.1-54.7c4.5-16.3,11.3-31.9,18.3-47.3c3.1-6.8,6.1-13.6,9-20.5c0.2-0.5,0.4-0.9,0.6-1.4
					c0.1-0.3,1.1-2.6,1.3-3c1.2-3,2.4-6,3.6-9c4.5-11.5,8.6-23.2,11.9-35.2c1.6-5.9,3-11.8,4.2-17.8c0.6-3,1.1-6.1,1.6-9.1
					c0.2-1.2,0.4-2.5,0.6-3.7c0.1-0.8,0.2-1.7,0.2-2c1.5-13.3,1.8-26.7,1.2-40.1c-0.5-10.9,9.3-19.1,19.5-19.5c0.3,0,0.5,0,0.8,0
					c10.5,0,18.3,9.6,18.8,19.6c1.2,29-2.1,58.1-10.1,86c-7,24.3-17.1,47.6-27.4,70.6c-1.9,4.2-3.8,8.5-5.7,12.7
					c-0.5,1-1.7,4.2-1.7,4.2c0,0,0.3-0.8,1.1-2.9c-0.6,1.5-1.2,3-1.8,4.5c-2.9,7.3-5.6,14.7-7.8,22.3c-1.2,4-2.2,8-3,12.1
					c-0.3,1.7-0.6,3.4-0.9,5c-0.2,1.8-0.3,2.5-0.3,2.5c0,0,0,0,0,0c-0.3,3.6-0.5,7.2-0.3,10.8c0,0.4,0.1,0.7,0.1,1.1
					c0.4,1.4,0.4,3,0.8,4.4c0.1,0.5,0.3,1,0.5,1.5c0.1,0,0.4,0.6,0.9,2.4c0.3,0.6,0.6,1.1,0.9,1.7c0.1,0.2,0.3,0.5,0.5,0.7
					c0.9,0.9,1.7,1.7,2.6,2.6c0.6,0.4,1.2,0.8,1.8,1.1c0.7,0.4,1.4,0.7,2.1,1.1c3.9,1.2,7.8,2.2,11.9,2.8
					c10.8,1.6,15.8,14.8,13.6,24c-1.1,4.7-4.9,9.3-9,11.7C2109.1,3099.2,2106.1,3099.8,2102.9,3099.8L2102.9,3099.8z"/>
			</g>
			<g>
				<polygon class="st3" points="1227.2,2248.8 1558.2,2277.4 1720,2391.6 1744.6,2464.8 1714.7,2651.6 1540.2,2805.1 
					1153.5,2709.3 1076.8,2668.2 1162.1,2343 				"/>
				<path d="M1480.1,2189.3c-191.4-41.1-379.9,80.6-421,272c-41.1,191.4,80.6,379.9,272,421c191.4,41.1,379.9-80.6,421-272
					C1793.2,2418.9,1671.5,2230.4,1480.1,2189.3z M1259.4,2711l-165.2-52.4l11.5-53.5l50.6,10.9l124.9-277.7l-55.7-12l12.3-57.2
					l195.7,42.1l-12.3,57.2l-66-14.2l-132,282.3l52.2,14.3L1259.4,2711z M1616,2609.7l-98.6,141l-54.2-33.5l84-135.7l-92.9-42.2
					l-125.6,186.6l-52.1-34.2l106.8-177.2l-53.4-28l30.4-55.6l55.8,22.4l84.2-127.6l57.4,33.8l-73.3,124.2l98.1,38l84.5-136.4
					l60.2,34l-81.7,126.6l74.1,35.5l-29.5,53.5L1616,2609.7z"/>
			</g>
		</g>
	</g>
</g>
<g id="Capa_2">
	<path d="M1547.4,114.3C741.6,111.4,86,762.2,83.1,1567.9C80.2,2373.7,731,3029.2,1536.7,3032.2
		c805.8,2.9,1461.3-647.9,1464.2-1453.6C3003.9,772.8,2353.1,117.2,1547.4,114.3z M1102.4,2403.1l-709.7-70.5l0.8-225.3l213,0.8
		L873.3,883.6l-234.6-0.9l0.9-240.8l824.1,3l-0.9,240.8l-277.8-1L893.5,2133.8l222.2,13.2L1102.4,2403.1z M2452.3,1691.9
		l-277.1,651.8l-246.6-88.9l222.9-618.1l-410.2-91l-347.3,858.4l-238.9-93.5l279.2-804.6l-239-67.2l75-249.8l243.7,42.6L1744.7,646
		l259.7,87.4L1814.8,1296l427.3,69.5l224.5-621.2l271.3,85.9l-221.3,579.5l328.4,79.9l-73.4,240.5L2452.3,1691.9z"/>
</g>
</svg>
